<?xml version="1.0" encoding="UTF-8"?>
<svg id="Layer_2" data-name="Layer 2" xmlns="http://www.w3.org/2000/svg" viewBox="0 0 453 453">
  <defs>
    <style>
      .cls-1 {
        stroke-width: 0px;
      }

      .cls-2 {
        fill: none;
        opacity: .99;
        stroke: #000;
        stroke-miterlimit: 10;
        stroke-width: 35px;
      }
    </style>
  </defs>
  <g id="Layer_1-2" data-name="Layer 1">
    <g>
      <rect class="cls-2" x="17.5" y="17.5" width="418" height="418" rx="42.62" ry="42.62"/>
      <path class="cls-1" d="M120.77,119.14l227.78,112.41-227.78,112.41-.32,2.54.32-227.36M120.77,77.14c-7.71,0-15.39,2.12-22.15,6.31-12.33,7.65-19.83,21.12-19.85,35.63l-.32,227.36c-.03,22.2,17.22,40.59,39.38,41.98.89.06,1.78.08,2.66.08,11.36,0,21.82-4.57,29.47-12.1l217.18-107.18c14.34-7.08,23.41-21.68,23.41-37.66s-9.08-30.59-23.41-37.66l-227.78-112.41c-5.87-2.9-12.24-4.34-18.59-4.34h0Z"/>
    </g>
  </g>
</svg>