<?xml version="1.0" encoding="UTF-8"?>
<svg id="Layer_2" data-name="Layer 2" xmlns="http://www.w3.org/2000/svg" viewBox="0 0 471 471">
  <defs>
    <style>
      .cls-1 {
        fill: none;
        opacity: .99;
        stroke: #000;
        stroke-miterlimit: 10;
        stroke-width: 53px;
      }

      .cls-2 {
        stroke-width: 0px;
      }
    </style>
  </defs>
  <g id="Layer_1-2" data-name="Layer 1">
    <g>
      <rect class="cls-1" x="26.5" y="26.5" width="418" height="418" rx="42.62" ry="42.62"/>
      <path class="cls-2" d="M169.15,167.5l148.91,73.49-148.91,73.49-.21,1.66.21-148.64M169.15,105.5c-11.38,0-22.72,3.13-32.7,9.32-18.2,11.29-29.27,31.18-29.3,52.59l-.21,148.64c-.05,32.77,25.42,59.92,58.13,61.96,1.31.08,2.62.12,3.92.12,14.41,0,27.85-4.98,38.5-13.45l138-68.11c21.16-10.44,34.56-32,34.56-55.6s-13.4-45.15-34.56-55.6l-148.91-73.49c-8.67-4.28-18.07-6.4-27.44-6.4h0Z"/>
    </g>
  </g>
</svg>